<?xml version="1.0" encoding="UTF-8"?>
<svg width="16px" height="16px" viewBox="0 0 16 16" version="1.1" xmlns="http://www.w3.org/2000/svg" xmlns:xlink="http://www.w3.org/1999/xlink">
    <!-- Generator: Sketch 50.2 (55047) - http://www.bohemiancoding.com/sketch -->
    <title>Rectangle 2</title>
    <desc>Created with Sketch.</desc>
    <defs></defs>
    <g id="Page-1" stroke="none" stroke-width="1" fill="none" fill-rule="evenodd">
        <g id="首页" transform="translate(-12.000000, -82.000000)">
            <g id="left_nav" transform="translate(0.000000, -1.000000)">
                <g id="菜单文字" transform="translate(0.000000, 71.000000)">
                    <g id="Group-13" transform="translate(12.000000, 12.000000)">
                        <rect id="Rectangle-2" fill-opacity="0.2" fill="#FF0000" opacity="0" x="0" y="0" width="16" height="16"></rect>
                        <g id="工作台" transform="translate(0.000000, 1.000000)" fill="#FFFFFF" fill-rule="nonzero">
                            <path d="M14.4269673,2.83386723 C14.2172229,2.58275018 13.9026135,2.45719165 13.6928835,2.7083087 C13.4831391,2.95944292 13.3782741,3.33613566 13.5880041,3.5872527 C14.5318323,4.96844797 14.9513068,6.47521893 14.9513068,8.23310694 C14.9513068,9.23760947 14.7415767,10.242112 14.4269673,11.121056 C14.3220879,11.4977487 14.4269673,11.748883 14.7415767,12 L14.9513068,12 C15.1610511,12 15.3707812,11.8744415 15.4756605,11.6233073 C15.7902413,10.4932462 16,9.36316799 16,8.23310694 C16,6.22408471 15.4756605,4.34063818 14.4269673,2.83386723 M13.1125587,0.0456659008 C11.3069474,2.37385943 7.09384339,8.07792243 6.85308754,8.54355795 C6.61234815,9.12561429 6.73271784,9.82405961 7.33459924,10.1732902 C7.93646419,10.406116 8.65871529,10.2896951 9.01984084,9.70765471 C9.26058023,9.24201919 12.2699379,2.95589985 13.4736842,0.27849162 C13.4736842,0.0456659008 13.2329448,-0.0707390009 13.1125587,0.0456659008 M8.21645193,1.20001969 C8.92072382,1.20001969 9.50760637,1.32001509 10.2118783,1.4400105 C10.5640142,1.56000591 10.7987608,1.32001509 10.9161502,1.08000788 C11.0335235,0.72000525 10.7987608,0.480014438 10.5640142,0.360019031 C9.74236901,0.119995406 9.03809712,0 8.21645193,0 C3.63871672,0 0,3.72000525 0,8.40000656 C0,9.47999803 0.234762647,10.5600059 0.586882546,11.6399974 C0.704271893,11.8800046 0.939018492,12 1.17378114,12 L1.40851169,12 C1.76064764,11.8800046 1.87803698,11.520002 1.76064764,11.1599993 C1.40851169,10.3199987 1.17376509,9.36000263 1.17376509,8.40000656 C1.17376509,4.43999409 4.34297256,1.20000328 8.21643588,1.20000328" id="Shape"></path>
                        </g>
                    </g>
                </g>
            </g>
        </g>
    </g>
</svg>