<?xml version="1.0" encoding="UTF-8"?>
<svg width="194px" height="41px" viewBox="0 0 194 41" version="1.1" xmlns="http://www.w3.org/2000/svg" xmlns:xlink="http://www.w3.org/1999/xlink">
    <!-- Generator: Sketch 50.2 (55047) - http://www.bohemiancoding.com/sketch -->
    <title>logo</title>
    <desc>Created with Sketch.</desc>
    <defs></defs>
    <g id="Symbols" stroke="none" stroke-width="1" fill="none" fill-rule="evenodd">
        <g id="头部" transform="translate(-43.000000, -29.000000)" fill="#FFFFFF">
            <g id="Group">
                <g id="logo" transform="translate(34.000000, 28.000000)">
                    <text id="圆通客户管家" font-family="PingFang-SC-Medium, PingFang SC" font-size="24" font-weight="400" letter-spacing="-0.137142837">
                        <tspan x="61" y="29">圆通客户管家</tspan>
                    </text>
                    <g id="logo-copy" transform="translate(9.000000, 1.000000)" fill-rule="nonzero">
                        <path d="M40.120396,12.7424752 C35.9905731,3.15979942 25.0932631,-1.80780628 14.9154256,1.25263473 C4.7375882,4.31307574 -1.40768053,14.4053268 0.701705425,24.5955411 C2.81109138,34.7857554 12.4884834,41.756808 23.0850621,40.7192609 C33.6816409,39.6817138 41.7480015,30.97331 41.7421782,20.5771287 C41.7440352,17.885954 41.1925501,15.2217892 40.120396,12.7424752 Z M38.2075248,27.640495 C34.4914464,36.2624921 24.6870543,40.7326272 15.5290244,37.9803468 C6.37099448,35.2280663 0.839612069,26.1490412 2.7344057,16.9796899 C4.62919932,7.81033854 13.3335489,1.53463059 22.868402,2.46337476 C32.4032552,3.39211893 39.6656976,11.2230753 39.6671287,20.5771287 C39.6705391,23.0032921 39.1741665,25.4053554 38.2075248,27.640495 Z" id="Shape"></path>
                        <path d="M36.4609901,13.5543564 L33.7746535,13.5543564 C33.6733658,15.5249033 32.0514175,17.095919 30.0320792,17.1794059 C30.3293105,17.7747276 30.529924,18.4115402 30.6267327,19.0670297 L30.6267327,19.0873267 C30.6267327,19.1806931 30.6516832,19.2781188 30.66,19.3755446 L30.66,19.4364356 C30.66,19.5419802 30.66,19.6434653 30.66,19.7490099 C30.66,19.830198 30.66,19.910033 30.66,19.9885149 C30.6603312,20.5729618 30.5791908,21.1547346 30.4188119,21.7178218 C32.0253905,22.2239033 33.1183851,23.6787148 33.130099,25.3266337 C33.130099,25.3591089 33.130099,25.3915842 33.130099,25.4240594 L35.8122772,25.4240594 C35.8122772,25.3915842 35.8122772,25.3591089 35.8122772,25.3266337 C35.8043238,22.8054091 34.2895627,20.5207295 31.9366337,19.4810891 C34.5719381,18.6315461 36.3804846,16.2624198 36.4609901,13.5543564 Z" id="Shape"></path>
                        <polygon id="Shape" points="21.8150495 17.1875248 23.1831683 14.5651485 11.4689109 14.5651485 9.90534653 17.5650495 8.4 14.5773267 8.39584158 14.5651485 5.30613861 14.5651485 7.97168317 19.8058416 7.98831683 19.8342574 8.72019802 19.8342574 5.78851485 25.4443564 8.81168317 25.4443564 13.119802 17.1875248 16.3633663 17.1875248 12.0510891 25.4443564 15.1449505 25.4443564 19.4572277 17.1875248"></polygon>
                        <path d="M29.3376238,14.9751485 C30.4859386,14.9751485 31.4168317,14.0664195 31.4168317,12.9454455 C31.4168317,11.8244715 30.4859386,10.9157426 29.3376238,10.9157426 C28.1893089,10.9157426 27.2584158,11.8244715 27.2584158,12.9454455 C27.2584158,14.0664195 28.1893089,14.9751485 29.3376238,14.9751485 Z" id="Shape"></path>
                        <path d="M29.670297,19.9966337 C29.6685608,17.0376761 27.2408956,14.6244944 24.210297,14.5692079 L22.8463366,17.1834653 L24.0938614,17.1834653 C25.4673712,17.1837093 26.6498179,18.1301934 26.9191653,19.444967 C27.1885127,20.7597406 26.4698944,22.0773562 25.2021196,22.5932397 C23.9343447,23.1091231 22.4697973,22.6798822 21.7027723,21.5676238 L19.8023762,23.4308911 C21.2891853,25.2100621 23.7620151,25.8834025 25.9775238,25.1123558 C28.1930325,24.3413092 29.6717987,22.2927249 29.670297,19.9966337 Z" id="Shape"></path>
                        <path d="M19.3491089,27.3563366 C18.8363908,27.3564861 18.3854948,27.6874337 18.2429703,28.1682178 C18.1886929,28.3306785 18.1620039,28.5007122 18.1639604,28.6715842 C18.1566937,28.7661708 18.1566937,28.8611559 18.1639604,28.9557426 C18.2240024,29.5432095 18.7318579,29.9897484 19.3366337,29.9868317 C19.9060558,30.0098042 20.4021376,29.611199 20.4885149,29.0612871 L20.1059406,29.0612871 C20.0308795,29.410432 19.7145563,29.6598407 19.3491089,29.6580198 C19.1262286,29.6506789 18.9157055,29.5562677 18.7648018,29.3959814 C18.6138981,29.2356951 18.5352575,29.0229634 18.5465347,28.8055446 L20.5425743,28.8055446 C20.530099,28.0829703 20.2265347,27.3563366 19.3491089,27.3563366 Z M18.5631683,28.4767327 C18.5756565,28.0531727 18.9197309,27.7102193 19.3532673,27.6892079 C19.8522772,27.6892079 20.1059406,28.0017822 20.1558416,28.4767327 L18.5590099,28.4767327 L18.5631683,28.4767327 Z" id="Shape"></path>
                        <path d="M32.8265347,28.6391089 C32.5963021,28.5514346 32.3600853,28.479544 32.119604,28.4239604 C31.9715299,28.3922645 31.8306135,28.3344888 31.7037624,28.2534653 C31.616742,28.1912595 31.5785838,28.0827499 31.6081188,27.9814851 C31.6663366,27.7582178 31.969901,27.7054455 32.1653465,27.7054455 C32.3096519,27.6983244 32.4532681,27.7291677 32.5811881,27.7947525 C32.7194273,27.8883166 32.8078252,28.0370979 32.8223762,28.2006931 L33.1924752,28.2006931 C33.1808854,27.955249 33.0648109,27.7256842 32.8722772,27.5674257 C32.664946,27.4205785 32.4129741,27.3462147 32.1570297,27.3563366 C31.7952475,27.3563366 31.3253465,27.4984158 31.2172277,27.8921782 C31.1860685,28.0148571 31.1947885,28.143961 31.2421782,28.2615842 C31.3416847,28.4617072 31.5252699,28.609818 31.7453465,28.6675248 C31.9782178,28.7487129 32.2235644,28.7974257 32.4564356,28.870495 C32.6893069,28.9435644 32.8722772,29.0125743 32.8722772,29.2358416 C32.8722772,29.5808911 32.539604,29.6417822 32.240198,29.6661386 C31.7910891,29.6661386 31.5623762,29.5281188 31.5041584,29.0856436 L31.1340594,29.0856436 C31.131742,29.4800129 31.3958527,29.8287341 31.7827723,29.9421782 C31.9388508,29.9815928 32.099837,29.9993579 32.2609901,29.9949505 C32.4010685,29.9944853 32.5406175,29.9781382 32.6768317,29.9462376 C32.909289,29.9012539 33.1056284,29.7503368 33.2049505,29.540297 C33.2728848,29.3839482 33.288883,29.2107391 33.2506931,29.0450495 C33.179743,28.8539094 33.0237031,28.7045716 32.8265347,28.6391089 Z" id="Shape"></path>
                        <path d="M24.8257426,27.3563366 C24.4950827,27.3413465 24.1801707,27.4950535 23.9940594,27.7622772 L23.9940594,27.4375248 L23.6322772,27.4375248 L23.6322772,30.8474257 L24.0106931,30.8474257 C24.0106931,30.4171287 24.0106931,29.9868317 24.0106931,29.5565347 C24.186788,29.8377654 24.5049948,30.0039527 24.8423762,29.9908911 C25.440187,29.9852264 25.9302471,29.5263969 25.9609901,28.9435644 C25.9844084,28.7711174 25.9844084,28.5964074 25.9609901,28.4239604 C25.9283259,27.832355 25.432574,27.3661338 24.8257426,27.3563366 Z M24.7841584,29.649901 C24.369367,29.6372382 24.03614,29.3119451 24.0231683,28.9070297 C24.0040657,28.754694 24.0040657,28.6006526 24.0231683,28.4483168 C24.0450714,28.0399369 24.374699,27.7112002 24.7924752,27.6810891 C25.370495,27.6810891 25.5825743,28.180396 25.5825743,28.6715842 C25.5825743,29.1627723 25.3621782,29.6661386 24.7841584,29.6661386 L24.7841584,29.649901 Z" id="Shape"></path>
                        <path d="M35.3631683,28.6391089 C35.1329358,28.5514346 34.8967189,28.479544 34.6562376,28.4239604 C34.5081636,28.3922645 34.3672472,28.3344888 34.240396,28.2534653 C34.1533756,28.1912595 34.1152175,28.0827499 34.1447525,27.9814851 C34.2029703,27.7582178 34.5065347,27.7054455 34.7019802,27.7054455 C34.8462856,27.6983244 34.9899018,27.7291677 35.1178218,27.7947525 C35.256061,27.8883166 35.3444588,28.0370979 35.3590099,28.2006931 L35.7291089,28.2006931 C35.7155415,27.9518828 35.5946695,27.7203194 35.3964356,27.5633663 C35.1919887,27.4205642 34.9449023,27.347775 34.6936634,27.3563366 C34.3318812,27.3563366 33.8619802,27.4984158 33.7538614,27.8921782 C33.7227022,28.0148571 33.7314222,28.143961 33.7788119,28.2615842 C33.8783184,28.4617072 34.0619035,28.609818 34.2819802,28.6675248 C34.5148515,28.7487129 34.760198,28.7974257 34.9930693,28.870495 C35.2259406,28.9435644 35.4089109,29.0125743 35.4089109,29.2358416 C35.4089109,29.5808911 35.0762376,29.6417822 34.7768317,29.6661386 C34.3277228,29.6661386 34.0990099,29.5281188 34.0407921,29.0856436 L33.6706931,29.0856436 C33.6683757,29.4800129 33.9324864,29.8287341 34.3194059,29.9421782 C34.4754845,29.9815928 34.6364706,29.9993579 34.7976238,29.9949505 C34.9377022,29.9944853 35.0772512,29.9781382 35.2134653,29.9462376 C35.4459226,29.9012539 35.6422621,29.7503368 35.7415842,29.540297 C35.8095185,29.3839482 35.8255166,29.2107391 35.7873267,29.0450495 C35.7163766,28.8539094 35.5603368,28.7045716 35.3631683,28.6391089 Z" id="Shape"></path>
                        <path d="M26.9506931,27.7622772 L26.9506931,27.4375248 L26.5722772,27.4375248 L26.5722772,29.93 L26.9506931,29.93 C26.9506931,29.4915842 26.9506931,29.0545215 26.9506931,28.6188119 C26.9477001,28.4561238 26.9832802,28.2949632 27.0546535,28.1479208 C27.1406387,27.9735432 27.2946868,27.8401246 27.4822874,27.7775539 C27.669888,27.7149831 27.8753601,27.7284903 28.0526733,27.8150495 L28.0526733,27.4375248 C27.6533184,27.2698433 27.1882881,27.4068873 26.9506931,27.7622772 Z" id="Shape"></path>
                        <path d="M29.5164356,27.3563366 C29.0037176,27.3564861 28.5528215,27.6874337 28.410297,28.1682178 C28.3537039,28.3330294 28.3255973,28.5058849 28.3271287,28.679703 C28.3199238,28.7742919 28.3199238,28.8692725 28.3271287,28.9638614 C28.3890253,29.5504102 28.8957683,29.9959709 29.499802,29.9949505 C30.068581,30.0160566 30.5635533,29.6183429 30.6516832,29.0694059 L30.2691089,29.0694059 C30.1940478,29.4185508 29.8777246,29.6679595 29.5122772,29.6661386 C29.0592575,29.6336201 28.7167639,29.2522929 28.7429703,28.809604 L30.7390099,28.809604 C30.6974257,28.0829703 30.4063366,27.3563366 29.5164356,27.3563366 Z M28.7429703,28.4889109 C28.7554584,28.0653509 29.0995329,27.7223975 29.5330693,27.7013861 C30.0320792,27.7013861 30.2857426,28.0139604 30.3356436,28.4889109 L28.7429703,28.4889109 Z" id="Shape"></path>
                        <path d="M23.1623762,27.4375248 L22.7091089,27.4375248 L22.0271287,28.3305941 C21.7984158,28.0342574 21.5738614,27.7338614 21.3451485,27.4375248 L20.8877228,27.4375248 L21.8067327,28.6147525 L20.779604,29.93 L21.2578218,29.93 L22.0437624,28.8989109 L22.8255446,29.93 L23.2829703,29.93 L22.2475248,28.6147525 L23.1623762,27.4375248 Z" id="Shape"></path>
                    </g>
                </g>
            </g>
        </g>
    </g>
</svg>